<?xml version="1.0" encoding="UTF-8" standalone="no"?><!DOCTYPE svg PUBLIC "-//W3C//DTD SVG 1.1//EN" "http://www.w3.org/Graphics/SVG/1.1/DTD/svg11.dtd"><svg width="100%" height="100%" viewBox="0 0 1000 1000" version="1.1" xmlns="http://www.w3.org/2000/svg" xmlns:xlink="http://www.w3.org/1999/xlink" xml:space="preserve" xmlns:serif="http://www.serif.com/" style="fill-rule:evenodd;clip-rule:evenodd;stroke-linejoin:round;stroke-miterlimit:2;"><path d="M500,982.759c-67.069,-31.38 -152.926,-84.483 -231.719,-175.518c-236.552,-273.62 -206.724,-656.379 -200.518,-724.138c55.345,8.449 131.207,13.449 219.828,0c88.793,-13.62 161.03,-41.206 212.409,-65.862c51.379,24.656 123.616,52.242 212.409,65.862c88.621,13.449 164.483,8.449 219.828,0c6.206,67.759 36.034,450.518 -200.518,724.138c-78.793,91.035 -164.65,144.138 -231.719,175.518Z" style="fill:url(#_Radial1);"/><path d="M500,982.759c-67.069,-31.38 -152.926,-84.483 -231.719,-175.518c-236.552,-273.62 -206.724,-656.379 -200.518,-724.138c55.345,8.449 131.207,13.449 219.828,0c88.793,-13.62 161.03,-41.206 212.409,-65.862c51.379,24.656 123.616,52.242 212.409,65.862c88.621,13.449 164.483,8.449 219.828,0c6.206,67.759 36.034,450.518 -200.518,724.138c-78.793,91.035 -164.65,144.138 -231.719,175.518Zm0,-96.693c51.684,-28.553 111.092,-71.187 166.522,-135.225c164.676,-190.497 185.974,-439.524 184.357,-573.709c-44.989,1.567 -95.963,-0.384 -151.473,-8.808l-0.068,-0.01c-79.033,-12.124 -146.296,-34.166 -199.338,-56.547c-53.042,22.381 -120.305,44.423 -199.406,56.557l-0.069,0.011c-55.441,8.413 -106.415,10.364 -151.404,8.797c-1.617,134.185 19.681,383.213 184.358,573.711c55.43,64.036 114.837,106.67 166.521,135.223Z" style="fill:#2a2a2a;"/><path d="M672.593,275.766l-172.581,103.337l-172.864,-103.338l172.864,-96.033l172.581,96.034Zm-191.429,132.253l-0,189.474l-160.59,-96.286l-0,-189.066l160.59,95.878Zm198.262,93.193l-160.59,96.23l0,-189.417l160.59,-96.354l0,189.541Z" style="fill:url(#_Radial2);"/><defs><radialGradient id="_Radial1" cx="0" cy="0" r="1" gradientUnits="userSpaceOnUse" gradientTransform="matrix(4.72291e-14,771.31,-850.361,5.20696e-14,500,111.574)"><stop offset="0" style="stop-color:#e200ff;stop-opacity:1"/><stop offset="1" style="stop-color:#5600e0;stop-opacity:1"/></radialGradient><radialGradient id="_Radial2" cx="0" cy="0" r="1" gradientUnits="userSpaceOnUse" gradientTransform="matrix(18.836,321.677,-374.484,21.9282,500,275.766)"><stop offset="0" style="stop-color:#ff80d0;stop-opacity:0.75"/><stop offset="1" style="stop-color:#7200ff;stop-opacity:0.75"/></radialGradient></defs></svg>